<?xml version="1.0" encoding="UTF-8"?>
<!DOCTYPE svg PUBLIC "-//W3C//DTD SVG 1.1//EN" "http://www.w3.org/Graphics/SVG/1.1/DTD/svg11.dtd">
<svg xmlns="http://www.w3.org/2000/svg" version="1.1" width="225px" height="225px" style="shape-rendering:geometricPrecision; text-rendering:geometricPrecision; image-rendering:optimizeQuality; fill-rule:evenodd; clip-rule:evenodd" xmlns:xlink="http://www.w3.org/1999/xlink">
<g><path style="opacity:1" fill="#1c1c1c" d="M 75.5,55.5 C 74.791,56.404 73.791,56.7373 72.5,56.5C 66.8747,55.507 61.208,54.8404 55.5,54.5C 55.3334,81.8354 55.5,109.169 56,136.5C 67.8609,137.754 79.0276,141.087 89.5,146.5C 88.1667,146.5 86.8333,146.5 85.5,146.5C 75.3013,142.127 64.6346,139.793 53.5,139.5C 53.5,115.5 53.5,91.5 53.5,67.5C 49.8212,67.7244 46.1545,68.0578 42.5,68.5C 42.8279,93.7412 42.4946,118.908 41.5,144C 52.8571,142.704 63.8571,143.871 74.5,147.5C 73.5084,147.328 72.8417,147.662 72.5,148.5C 61.674,146.718 51.0073,146.051 40.5,146.5C 40.5,123.5 40.5,100.5 40.5,77.5C 39.209,77.2627 38.209,77.596 37.5,78.5C 36.0048,78.9887 34.6715,79.6554 33.5,80.5C 32.1708,106.336 32.1708,132.336 33.5,158.5C 34.1067,158.376 34.44,158.043 34.5,157.5C 55.9903,151.799 77.3236,152.466 98.5,159.5C 98.8333,160.833 99.1667,160.833 99.5,159.5C 99.8417,158.662 100.508,158.328 101.5,158.5C 101.833,158.5 102.167,158.5 102.5,158.5C 102.842,159.338 103.508,159.672 104.5,159.5C 104.833,160.833 105.167,160.833 105.5,159.5C 106.167,159.5 106.833,159.5 107.5,159.5C 108.79,160.058 109.623,161.058 110,162.5C 110.5,135.169 110.667,107.835 110.5,80.5C 110.328,79.5084 110.662,78.8417 111.5,78.5C 112.167,79.1667 112.833,79.8333 113.5,80.5C 113.333,107.835 113.5,135.169 114,162.5C 114.377,161.058 115.21,160.058 116.5,159.5C 117.167,159.5 117.833,159.5 118.5,159.5C 118.833,160.833 119.167,160.833 119.5,159.5C 120.492,159.672 121.158,159.338 121.5,158.5C 121.833,158.5 122.167,158.5 122.5,158.5C 123.492,158.328 124.158,158.662 124.5,159.5C 124.833,160.833 125.167,160.833 125.5,159.5C 146.676,152.466 168.01,151.799 189.5,157.5C 189.56,158.043 189.893,158.376 190.5,158.5C 191.829,132.336 191.829,106.336 190.5,80.5C 189.329,79.6554 187.995,78.9887 186.5,78.5C 185.791,77.596 184.791,77.2627 183.5,77.5C 183.5,100.5 183.5,123.5 183.5,146.5C 172.993,146.051 162.326,146.718 151.5,148.5C 151.5,147.833 151.5,147.167 151.5,146.5C 161.698,143.754 172.031,142.921 182.5,144C 181.505,118.908 181.172,93.7412 181.5,68.5C 177.846,68.0578 174.179,67.7244 170.5,67.5C 170.5,91.5 170.5,115.5 170.5,139.5C 159.365,139.793 148.699,142.127 138.5,146.5C 137.508,146.672 136.842,146.338 136.5,145.5C 146.419,140.726 156.919,137.726 168,136.5C 168.5,109.169 168.667,81.8354 168.5,54.5C 162.792,54.8404 157.125,55.507 151.5,56.5C 150.209,56.7373 149.209,56.404 148.5,55.5C 155.381,53.4643 162.381,52.2976 169.5,52C 170.467,56.4014 170.8,60.9014 170.5,65.5C 174.915,65.3054 179.249,65.8054 183.5,67C 184.125,69.8003 184.792,72.6336 185.5,75.5C 187.811,76.2135 189.978,77.2135 192,78.5C 192.192,80.5767 192.692,82.5767 193.5,84.5C 196.53,85.4318 199.363,86.7651 202,88.5C 202.5,115.831 202.667,143.165 202.5,170.5C 187.533,164.867 172.033,162.534 156,163.5C 141.174,163.103 126.507,164.437 112,167.5C 90.6597,163.719 69.1597,162.552 47.5,164C 38.5668,165.233 29.9002,167.4 21.5,170.5C 21.5,142.833 21.5,115.167 21.5,87.5C 24.5729,86.801 27.5729,85.801 30.5,84.5C 31.3078,82.5767 31.8078,80.5767 32,78.5C 34.0223,77.2135 36.1889,76.2135 38.5,75.5C 39.208,72.6336 39.8747,69.8003 40.5,67C 44.7514,65.8054 49.0848,65.3054 53.5,65.5C 53.2,60.9014 53.5333,56.4014 54.5,52C 61.6191,52.2976 68.6191,53.4643 75.5,55.5 Z M 72.5,56.5 C 87.4236,60.9599 100.09,68.9599 110.5,80.5C 110.667,107.835 110.5,135.169 110,162.5C 109.623,161.058 108.79,160.058 107.5,159.5C 102.569,153.7 96.5689,149.366 89.5,146.5C 79.0276,141.087 67.8609,137.754 56,136.5C 55.5,109.169 55.3334,81.8354 55.5,54.5C 61.208,54.8404 66.8747,55.507 72.5,56.5 Z M 136.5,145.5 C 128.775,148.692 122.109,153.359 116.5,159.5C 115.21,160.058 114.377,161.058 114,162.5C 113.5,135.169 113.333,107.835 113.5,80.5C 123.91,68.9599 136.576,60.9599 151.5,56.5C 157.125,55.507 162.792,54.8404 168.5,54.5C 168.667,81.8354 168.5,109.169 168,136.5C 156.919,137.726 146.419,140.726 136.5,145.5 Z M 85.5,146.5 C 91.3831,149.386 96.7164,153.052 101.5,157.5C 92.8011,153.316 83.8011,149.982 74.5,147.5C 63.8571,143.871 52.8571,142.704 41.5,144C 42.4946,118.908 42.8279,93.7412 42.5,68.5C 46.1545,68.0578 49.8212,67.7244 53.5,67.5C 53.5,91.5 53.5,115.5 53.5,139.5C 64.6346,139.793 75.3013,142.127 85.5,146.5 Z M 151.5,146.5 C 141.513,149.327 131.846,152.994 122.5,157.5C 127.284,153.052 132.617,149.386 138.5,146.5C 148.699,142.127 159.365,139.793 170.5,139.5C 170.5,115.5 170.5,91.5 170.5,67.5C 174.179,67.7244 177.846,68.0578 181.5,68.5C 181.172,93.7412 181.505,118.908 182.5,144C 172.031,142.921 161.698,143.754 151.5,146.5 Z M 37.5,78.5 C 39.1635,100.982 40.1635,123.648 40.5,146.5C 51.0073,146.051 61.674,146.718 72.5,148.5C 81.6921,151.101 90.3588,154.768 98.5,159.5C 77.3236,152.466 55.9903,151.799 34.5,157.5C 33.5022,132.005 33.1689,106.339 33.5,80.5C 34.6715,79.6554 36.0048,78.9887 37.5,78.5 Z M 186.5,78.5 C 187.995,78.9887 189.329,79.6554 190.5,80.5C 190.831,106.339 190.498,132.005 189.5,157.5C 168.01,151.799 146.676,152.466 125.5,159.5C 133.641,154.768 142.308,151.101 151.5,148.5C 162.326,146.718 172.993,146.051 183.5,146.5C 183.836,123.648 184.836,100.982 186.5,78.5 Z"/></g>
<g><path style="opacity:1" fill="#2b2b2b" d="M 75.5,55.5 C 89.8158,59.6513 101.816,67.318 111.5,78.5C 110.662,78.8417 110.328,79.5084 110.5,80.5C 100.09,68.9599 87.4236,60.9599 72.5,56.5C 73.791,56.7373 74.791,56.404 75.5,55.5 Z"/></g>
<g><path style="opacity:1" fill="#2b2b2b" d="M 148.5,55.5 C 149.209,56.404 150.209,56.7373 151.5,56.5C 136.576,60.9599 123.91,68.9599 113.5,80.5C 112.833,79.8333 112.167,79.1667 111.5,78.5C 121.744,67.5409 134.078,59.8742 148.5,55.5 Z"/></g>
<g><path style="opacity:1" fill="#535353" d="M 37.5,78.5 C 38.209,77.596 39.209,77.2627 40.5,77.5C 40.5,100.5 40.5,123.5 40.5,146.5C 40.1635,123.648 39.1635,100.982 37.5,78.5 Z"/></g>
<g><path style="opacity:1" fill="#505050" d="M 186.5,78.5 C 184.836,100.982 183.836,123.648 183.5,146.5C 183.5,123.5 183.5,100.5 183.5,77.5C 184.791,77.2627 185.791,77.596 186.5,78.5 Z"/></g>
<g><path style="opacity:1" fill="#535353" d="M 33.5,80.5 C 33.1689,106.339 33.5022,132.005 34.5,157.5C 34.44,158.043 34.1067,158.376 33.5,158.5C 32.1708,132.336 32.1708,106.336 33.5,80.5 Z"/></g>
<g><path style="opacity:1" fill="#535353" d="M 190.5,80.5 C 191.829,106.336 191.829,132.336 190.5,158.5C 189.893,158.376 189.56,158.043 189.5,157.5C 190.498,132.005 190.831,106.339 190.5,80.5 Z"/></g>
<g><path style="opacity:1" fill="#2f2f2f" d="M 85.5,146.5 C 86.8333,146.5 88.1667,146.5 89.5,146.5C 96.5689,149.366 102.569,153.7 107.5,159.5C 106.833,159.5 106.167,159.5 105.5,159.5C 105.167,159.5 104.833,159.5 104.5,159.5C 104.158,158.662 103.492,158.328 102.5,158.5C 102.5,157.833 102.167,157.5 101.5,157.5C 96.7164,153.052 91.3831,149.386 85.5,146.5 Z"/></g>
<g><path style="opacity:1" fill="#323232" d="M 136.5,145.5 C 136.842,146.338 137.508,146.672 138.5,146.5C 132.617,149.386 127.284,153.052 122.5,157.5C 121.833,157.5 121.5,157.833 121.5,158.5C 120.508,158.328 119.842,158.662 119.5,159.5C 119.167,159.5 118.833,159.5 118.5,159.5C 117.833,159.5 117.167,159.5 116.5,159.5C 122.109,153.359 128.775,148.692 136.5,145.5 Z"/></g>
<g><path style="opacity:1" fill="#2e2e2e" d="M 72.5,148.5 C 72.8417,147.662 73.5084,147.328 74.5,147.5C 83.8011,149.982 92.8011,153.316 101.5,157.5C 101.5,157.833 101.5,158.167 101.5,158.5C 100.508,158.328 99.8417,158.662 99.5,159.5C 99.1667,159.5 98.8333,159.5 98.5,159.5C 90.3588,154.768 81.6921,151.101 72.5,148.5 Z"/></g>
<g><path style="opacity:1" fill="#2c2c2c" d="M 151.5,146.5 C 151.5,147.167 151.5,147.833 151.5,148.5C 142.308,151.101 133.641,154.768 125.5,159.5C 125.167,159.5 124.833,159.5 124.5,159.5C 124.158,158.662 123.492,158.328 122.5,158.5C 122.5,158.167 122.5,157.833 122.5,157.5C 131.846,152.994 141.513,149.327 151.5,146.5 Z"/></g>
</svg>
